<?xml version="1.0" encoding="UTF-8"?> <svg xmlns="http://www.w3.org/2000/svg" viewBox="0 0 150 60.37"> <defs> <style>.cls-1,.cls-2,.cls-4{fill:#141515;}.cls-2{stroke:#141515;stroke-miterlimit:10;stroke-width:0.57px;}.cls-3,.cls-4{isolation:isolate;}.cls-4{font-size:6.6px;font-family:GothamPro, Gotham Pro;}.cls-5{fill:none;}</style> </defs> <title>Ресурс 5</title> <g id="Слой_2" data-name="Слой 2"> <g id="Слой_1-2" data-name="Слой 1"> <path class="cls-1" d="M56.82,10.63a1,1,0,0,1,1.36.52c.31.52.21.84-.42,1-1.57.73-5.12.84-10.66.52-.21,1.88-.31,4.81-.31,8.88a119.4,119.4,0,0,0,.31,12.23c.31,4.08.73,6.37,1.25,6.79.31.31.1.52-.63.73a10.36,10.36,0,0,1-4.39,0,1.57,1.57,0,0,1-.84-.42c-.73-.63-1.15-2.93-1.46-7.11s-.42-8.36-.31-12.75.31-7.31.52-9a50.3,50.3,0,0,1-9.3-1.78.94.94,0,0,1-.63-.63,1.19,1.19,0,0,1,.31-.84,1,1,0,0,1,.94-.21A74.06,74.06,0,0,0,44.8,10.74c5.85.63,9.82.52,12-.1Zm-2.3,15.88c-1.78-.1-2.72-.63-2.82-1.78A2.33,2.33,0,0,1,53,22.44a2.68,2.68,0,0,1,2-.42,3.53,3.53,0,0,1,2.3,1.36,1.75,1.75,0,0,1,.21,2.19c-.42.73-1.36.94-2.93.94ZM64,15.29s-.92,1.4,1.28,2.14c.31.1,0-.52.21-.42.63.73.89.68-.73.42-1.25,0,0,1.67,0,1.67.73,3.66,1,9.09-.63,12.54-.42.84-.94,1.67-1.46,2.61a35.5,35.5,0,0,1-2.19,3.13,15,15,0,0,1-2.82,2.93,4.26,4.26,0,0,1-2.72,1.25,2.48,2.48,0,0,1-2.4-1.36,7.55,7.55,0,0,1-1-3.66c-.1-1.46-.21-2.82-.21-4.08a24.7,24.7,0,0,1,.21-3.13q.16-.47,1.57-.63a9.07,9.07,0,0,1,2.93.1c.94.21,1.36.52,1.36.84-.52,4-.52,6.37-.1,7.21.31.63.73-.21,2.4-1.78,2.3-2.3,4.08-15.26,3.66-16.2-.31-.73-2.72-.52-3.45-.94-1-.63-.21-3.87,1.36-3.24,1.36.63,2.24.66,2.34.45Zm2.95,0c-.42,3.13.52,20.48.84,23.62a18.3,18.3,0,0,0,1.46,6.37s-2.82-28.84.94-28.42c3.45.31,6.58,1.15,6.79.84s-.63,1.78-.42,1.25c.1-.1,6.58.94-.31.21-.94-.1-3.87-1.15-5.12-.73-2.09.73,2.09,20.38,2.72,22.68.21.84.73,2.51.84,3.34C75,48,73.44,50.34,71.14,51a6.36,6.36,0,0,1-5-.84c-1.46-.94-2.4-3-3-4.49-3.34-8.36-1.25-48.59,9.72-44C77.93,3.84,76.15,14.18,67,15.33Zm.1-2.72a12.84,12.84,0,0,0,2.61-.73c1.88-.84,3.66-2.4,2-5-.84-1.46-3.87-.42-4.6,5.75ZM86,31c-.31.52.63-.73,1.15-.42a.82.82,0,0,1,.52,1.15c-.42.84-.94,1.67-1.46,2.61s-1.36,2-2.19,3.13a18.37,18.37,0,0,1-2.72,2.93,4.26,4.26,0,0,1-2.72,1.25,2.34,2.34,0,0,1-2.3-1.36,7.55,7.55,0,0,1-1-3.66c-.1-1.46-.21-4.91-.1-6.17,0-2.82.63-14.42,1.25-14.94a12.55,12.55,0,0,1,3.55,0c.84.1,1.67.1,1.67.31-.1,1.88-2.3,19.44.21,20.48.52.21.63.21,1.57-1.15C84.51,33.41,86.18,30.69,86,31Zm7-9.61a80.88,80.88,0,0,0-.1,11.29c.21,4,.52,6.17,1,6.69.84.73,2,0,3.24-2.19a13,13,0,0,0,2.19-5.33.94.94,0,0,1,1.88,0,14.38,14.38,0,0,1-2.93,7.21c-1.78,2.72-3.76,4-5.85,4a4.59,4.59,0,0,1-3.87-2.4,15.49,15.49,0,0,1-2.09-5.85,64.79,64.79,0,0,1-.63-13.48c-.31-.1-5.54-1-7.31-2-.94-.52-.1-.94.31-.94,1.67.31,5.75,1.15,7.31,1.36.31-2.51.31-4.08,1.15-4.39a10,10,0,0,1,3.34-.21c3.66.1,3,.42,2.61,4.91a58.32,58.32,0,0,0,6.79-.31c1.57-.1,2.3-.21,2.19.52s-1.25.73-2.82.94a55.19,55.19,0,0,1-6.48.21Zm19.75,18.18c-.73,5.22-2,8.26-3.87,9.09a3.42,3.42,0,0,1-4.6-.84,5.4,5.4,0,0,1-.94-5.12,7.12,7.12,0,0,1,3.45-4.49A40.32,40.32,0,0,0,107,33a26.65,26.65,0,0,1-3.34,3.13A5.14,5.14,0,0,1,101,37.59,2.11,2.11,0,0,1,99.14,37a5.39,5.39,0,0,1-1.25-2,9.33,9.33,0,0,1-.73-2.72,16.44,16.44,0,0,1-.31-2.82c-.1-.84.1-12.23.1-13.06,0-.63,1.57-.42,3.55-.42s2.19-.21,2.19.42c0,.1-.1,11.08-.1,11.81s.1,1.36.1,2a12.8,12.8,0,0,0,.21,2,3,3,0,0,0,.42,1.36q.31.47,1.88-.94A8.4,8.4,0,0,0,107,30.49c0-4.7.73-9.72.73-14.53,0-.63.94-.84,2.93-.84s2.61.42,2.61.94c0,6.27-.1,18-.31,20.27a18.39,18.39,0,0,0,2.3-3c.84-1.36,1.36-2.3,1.57-2.72a.89.89,0,0,1,1.25-.52.76.76,0,0,1,.52,1.15,24.86,24.86,0,0,1-5.85,8.36Zm-6.27,1.67c-1,.73-1.46,2.09-1.25,4,.1.73.21,1.15.31,1.15s.21-.1.21-.31c.1-.52.21-1.15.31-1.78a14.68,14.68,0,0,0,.21-1.88c.1-.63.21-1,.21-1.15Z"></path> <path class="cls-2" d="M77.3,10a2.18,2.18,0,0,0-.94,2.09,3,3,0,0,0,.42.84,2.45,2.45,0,0,0,1,.52,10.27,10.27,0,0,0,1.67.21A2.33,2.33,0,0,0,82,12a2.49,2.49,0,0,0-.94-2A3.38,3.38,0,0,0,77.3,10Z"></path> <g class="cls-3"> <text class="cls-4" transform="translate(41.04 59.08) scale(1.01 1)">т</text> <text class="cls-4" transform="translate(44.42 59.08) scale(1.01 1)">в</text> <text class="cls-4" transform="translate(48.33 59.08) scale(1.01 1)">о</text> <text class="cls-4" transform="translate(52.35 59.08) scale(1.01 1)">й</text> <text class="cls-4" transform="translate(56.36 59.08) scale(1.01 1)"> </text> <text class="cls-4" transform="translate(58.37 59.08) scale(1.01 1)">с</text> <text class="cls-4" transform="translate(62.38 59.08) scale(1.01 1)">т</text> <text class="cls-4" transform="translate(65.76 59.08) scale(1.01 1)">и</text> <text class="cls-4" transform="translate(69.77 59.08) scale(1.01 1)">л</text> <text class="cls-4" transform="translate(73.78 59.08) scale(1.01 1)">ь</text> <text class="cls-4" transform="translate(77.06 59.08) scale(1.01 1)"> </text> <text class="cls-4" transform="translate(79.07 59.08) scale(1.01 1)">в</text> <text class="cls-4" transform="translate(83.08 59.08) scale(1.01 1)"> <tspan xml:space="preserve"> д</tspan> </text> <text class="cls-4" transform="translate(89.1 59.08) scale(1.01 1)">е</text> <text class="cls-4" transform="translate(93.11 59.08) scale(1.01 1)">т</text> <text class="cls-4" transform="translate(96.49 59.08) scale(1.01 1)">а</text> <text class="cls-4" transform="translate(100.51 59.08) scale(1.01 1)">л</text> <text class="cls-4" transform="translate(104.52 59.08) scale(1.01 1)">я</text> <text class="cls-4" transform="translate(108.43 59.08) scale(1.01 1)">х</text> </g> <rect class="cls-5" width="150" height="60.01"></rect> </g> </g> </svg> 